<svg xmlns="http://www.w3.org/2000/svg">
      <symbol viewBox="0 0 50 26" id="arrow-left">
      <path d="M50 11H7.7l8.1-8.2L13 0 0 13l13 13 2.8-2.8L7.7 15H50v-4Z" fill="#000"/></symbol>
      <symbol viewBox="0 0 50 26" id="arrow-right">
      <path d="M0 11h42.3l-8.1-8.2L37 0l13 13-13 13-2.8-2.8 8.1-8.2H0v-4Z" fill="#000"/></symbol>
      <symbol id="cartcard"><path opacity=".2" d="M19.227 7.238h-3.382L12.56.402C12.367 0 11.98-.1 11.594.101c-.386.2-.483.603-.29 1.005L14.3 7.238H5.508l2.995-6.132c.194-.402 0-.804-.29-1.005-.386-.202-.772 0-.966.301L3.961 7.238H.773A.777.777 0 0 0 0 8.042c0 .402.29.805.773.805h.193l.87 3.015c-.193.101-.29.302-.29.604 0 .402.29.703.676.703L3.865 19h12.27l1.643-5.83c.386 0 .676-.302.676-.704 0-.201-.096-.503-.29-.604l.87-3.015h.193A.777.777 0 0 0 20 8.042a.777.777 0 0 0-.773-.804ZM14.88 17.392H4.831l-1.16-4.323h12.464L14.88 17.39Zm1.546-5.831H3.188l-.773-2.815h14.783l-.773 2.815Z" fill="#000"/></symbol>
      <symbol viewBox="0 0 25 24" id="phone"><g opacity=".2" fill="#000"><path d="M17.44 24h-1.11c-4.939-.593-8.568-2.864-11.189-5.728C2.521 15.408.403 11.753 0 6.716V5.333c.1-.888.504-1.481 1.109-2.074.605-.69 1.613-1.481 2.52-1.58.706 0 1.815.494 2.218 1.087.403.493.605 1.58.806 2.37.202.889.605 1.975.504 2.765-.201 1.186-1.814 1.68-2.217 2.568 1.612 3.655 4.133 6.42 7.56 8.198.806-.494 1.613-1.877 2.823-1.877.403 0 1.008.198 1.41.297.505.098.908.296 1.311.493.706.297 2.017.593 2.42 1.186.403.592.705 1.58.605 2.172-.303 1.284-2.42 2.667-3.63 3.062ZM12.6 1.481c5.948 0 10.888 4.741 10.888 10.667H25C25 5.432 19.456 0 12.6 0v1.481Z"/>
      <path d="M12.6 9.185v1.58c.807 0 1.412.593 1.412 1.383h1.613c0-1.58-1.31-2.963-3.024-2.963ZM12.6 6.124c3.327 0 6.15 2.666 6.15 6.024h1.613c0-4.148-3.427-7.506-7.661-7.506v1.482H12.6Z"/></g></symbol>
      <symbol viewBox="0 0 32 21" id="mail"><path opacity=".2" d="M28 0H4C1.8 0 0 1.8 0 4v13c0 2.2 1.8 4 4 4h24c2.2 0 4-1.8 4-4V4c0-2.2-1.8-4-4-4ZM2 5.3l7 5.3-7 5.3V5.3ZM30 17c0 1.1-.9 2-2 2H4c-1.1 0-2-.9-2-2l7.8-5.9 4.4 3.3c.5.4 1.2.6 1.8.6.6 0 1.3-.2 1.8-.6l4.4-3.3L30 17Zm0-1.2-7-5.3 7-5.3v10.6Zm-12.8-2.2c-.4.3-.8.4-1.2.4-.4 0-.9-.1-1.2-.4l-4.1-3.1-.8-.6L2 4c0-1.1.9-2 2-2h24c1.1 0 2 .9 2 2l-12.8 9.6Z" fill="#000"/></symbol>
    </svg>











